<svg width="600" height="400" viewBox="0 0 600 400" fill="none" xmlns="http://www.w3.org/2000/svg">
  <!-- Background circles -->
  <circle cx="450" cy="100" r="80" fill="#FFF5F3" opacity="0.6"/>
  <circle cx="150" cy="300" r="60" fill="#FFE5E0" opacity="0.6"/>
  
  <!-- Main illustration - Woman with tech device -->
  <ellipse cx="300" cy="350" rx="120" ry="20" fill="#FFE5E0" opacity="0.3"/>
  
  <!-- Body -->
  <path d="M300 200 C300 200 280 220 280 260 L280 320 L320 320 L320 260 C320 220 300 200 300 200 Z" fill="#FF9A8B"/>
  
  <!-- Head -->
  <circle cx="300" cy="180" r="30" fill="#FFB5A7"/>
  
  <!-- Hair -->
  <path d="M270 180 Q270 150 300 150 Q330 150 330 180 L330 190 Q330 170 300 170 Q270 170 270 190 Z" fill="#1E293B"/>
  
  <!-- Arms -->
  <path d="M280 270 L250 290 L255 295 L285 275 Z" fill="#FFB5A7"/>
  <path d="M320 270 L350 290 L345 295 L315 275 Z" fill="#FFB5A7"/>
  
  <!-- Device in hand -->
  <rect x="340" y="280" width="40" height="60" rx="5" fill="#1E293B"/>
  <rect x="345" y="285" width="30" height="40" rx="2" fill="#FF9A8B"/>
  <circle cx="360" cy="332" r="4" fill="#FF6A88"/>
  
  <!-- Data points floating -->
  <circle cx="200" cy="150" r="8" fill="#FF6A88" opacity="0.7"/>
  <circle cx="230" cy="120" r="6" fill="#FF99AC" opacity="0.7"/>
  <circle cx="180" cy="180" r="5" fill="#FF9A8B" opacity="0.7"/>
  
  <circle cx="400" cy="160" r="7" fill="#FF6A88" opacity="0.7"/>
  <circle cx="370" cy="130" r="5" fill="#FF99AC" opacity="0.7"/>
  <circle cx="420" cy="190" r="6" fill="#FF9A8B" opacity="0.7"/>
  
  <!-- Connection lines -->
  <line x1="200" y1="150" x2="230" y2="120" stroke="#FF6A88" stroke-width="2" opacity="0.3"/>
  <line x1="230" y1="120" x2="180" y2="180" stroke="#FF6A88" stroke-width="2" opacity="0.3"/>
  
  <line x1="400" y1="160" x2="370" y2="130" stroke="#FF6A88" stroke-width="2" opacity="0.3"/>
  <line x1="370" y1="130" x2="420" y2="190" stroke="#FF6A88" stroke-width="2" opacity="0.3"/>
  
  <!-- Heartbeat icon -->
  <path d="M300 100 L310 90 Q315 85 320 90 L330 100 L320 110 L300 100 Z" fill="#FF6A88"/>
  <path d="M300 100 L290 90 Q285 85 280 90 L270 100 L280 110 L300 100 Z" fill="#FF6A88"/>
</svg>
