<svg xmlns="http://www.w3.org/2000/svg" viewBox="0 0 512 512" role="img" aria-labelledby="title desc">
  <title id="title">BiYé swirl marker icon</title>
  <desc id="desc">Circular arrow enclosing a spiral map marker with connected nodes on a soft pink background.</desc>
  <rect width="512" height="512" fill="#ffe5ec" rx="48" ry="48" />
  <path d="M124 256c0-84.07 67.93-152 152-152 27.44 0 53.26 7.17 75.48 19.74" fill="none" stroke="#d3748d" stroke-width="20" stroke-linecap="round" stroke-linejoin="round" />
  <path d="M374 117.5l-34.5-2 19-28" fill="#d3748d" />
  <path d="M358 366c-23.56 18.76-53.31 30-85.99 30-84.07 0-152-67.93-152-152 0-21.11 4.31-41.23 12.09-59.48" fill="none" stroke="#d3748d" stroke-width="20" stroke-linecap="round" stroke-linejoin="round" />
  <path d="M256 154c-45 0-82 35.9-82 80.2 0 51.3 54.9 116.6 77.7 140.6 2.3 2.5 6.3 2.5 8.6 0 22.9-24 77.7-89.3 77.7-140.6C338 189.9 301 154 256 154z" fill="none" stroke="#d3748d" stroke-width="20" stroke-linecap="round" stroke-linejoin="round" />
  <path d="M260 201c-21 0-38 17-38 38 0 22 15 33 32 33s27-11 27-24-8-17-16-17-14 6-14 13" fill="none" stroke="#d3748d" stroke-width="16" stroke-linecap="round" stroke-linejoin="round" />
  <path d="M296 294c30 17 59.5 32 88 46" fill="none" stroke="#d3748d" stroke-width="16" stroke-linecap="round" stroke-linejoin="round" />
  <circle cx="318" cy="282" r="12" fill="#d3748d" />
  <circle cx="374" cy="310" r="12" fill="#d3748d" />
  <circle cx="420" cy="332" r="12" fill="#d3748d" />
</svg>
